<svg width="64" height="64" viewBox="0 0 64 64" fill="none" xmlns="http://www.w3.org/2000/svg">
<circle cx="32" cy="32" r="32" fill="#DEE7EC"/>
<g clip-path="url(#clip0_159_1400)">
<path d="M30.3784 20.7742L34.7028 27.5484L30.3784 34.3226H23.892L19.5676 27.5484L23.892 20.7742H30.3784Z" stroke="#296479" stroke-linecap="round" stroke-linejoin="round"/>
<path d="M41.1893 27.5484L45.5136 20.7742L41.1893 14H34.7028L30.3785 20.7742L34.7028 27.5484M41.1893 27.5484H34.7028M41.1893 27.5484L45.5136 34.3226M34.7028 27.5484L30.3785 34.3226L34.7028 41.0968M41.1893 41.0968L45.5136 47.871M41.1893 41.0968L45.5136 34.3226M41.1893 41.0968H34.7028M19.5677 14L23.892 20.7742M34.7028 41.0968L32.5407 44.4839M23.892 34.3226L21.7298 37.7097M19.5677 27.5484H17.4055M45.5136 34.3226H52.0001" stroke="#296479" stroke-linecap="round" stroke-linejoin="round"/>
<path d="M30.3784 49C30.9755 49 31.4595 48.4945 31.4595 47.871C31.4595 47.2474 30.9755 46.7419 30.3784 46.7419C29.7814 46.7419 29.2974 47.2474 29.2974 47.871C29.2974 48.4945 29.7814 49 30.3784 49Z" fill="#296479"/>
<path d="M19.5677 42.2258C20.1647 42.2258 20.6487 41.7204 20.6487 41.0968C20.6487 40.4733 20.1647 39.9678 19.5677 39.9678C18.9706 39.9678 18.4866 40.4733 18.4866 41.0968C18.4866 41.7204 18.9706 42.2258 19.5677 42.2258Z" fill="#296479"/>
<path d="M13.0811 28.6775C13.6781 28.6775 14.1622 28.172 14.1622 27.5485C14.1622 26.9249 13.6781 26.4194 13.0811 26.4194C12.484 26.4194 12 26.9249 12 27.5485C12 28.172 12.484 28.6775 13.0811 28.6775Z" fill="#296479"/>
</g>
<defs>
<clipPath id="clip0_159_1400">
<rect width="40" height="35" fill="white" transform="translate(12 14)"/>
</clipPath>
</defs>
</svg>
