<svg width="64" height="64" viewBox="0 0 64 64" fill="none" xmlns="http://www.w3.org/2000/svg">
<circle cx="32" cy="32" r="32" fill="#DEE7EC"/>
<path d="M19.7104 49H44.5" stroke="#296479"/>
<path d="M32 48.5V23" stroke="#296479"/>
<path d="M31.9995 14.5C34.6816 14.5 36.763 16.4425 36.7632 18.7295C36.7632 21.0166 34.6817 22.959 31.9995 22.959C29.3175 22.9588 27.2368 21.0165 27.2368 18.7295C27.237 16.4426 29.3176 14.5002 31.9995 14.5Z" stroke="#296479"/>
<path d="M45.5478 27.7243C45.8134 27.7996 46.0899 27.6453 46.1652 27.3796C46.2405 27.1139 46.0862 26.8375 45.8205 26.7622L45.6841 27.2432L45.5478 27.7243ZM36.5 20L36.0264 20.1604C36.8349 22.5476 37.9556 24.1046 39.5421 25.2362C41.1053 26.3512 43.0871 27.0267 45.5478 27.7243L45.6841 27.2432L45.8205 26.7622C43.3591 26.0644 41.5304 25.4261 40.1228 24.4221C38.7386 23.4348 37.7282 22.0679 36.9736 19.8396L36.5 20Z" fill="#296479"/>
<path d="M18.4522 27.7243C18.1866 27.7996 17.9101 27.6453 17.8348 27.3796C17.7595 27.1139 17.9138 26.8375 18.1795 26.7622L18.3159 27.2432L18.4522 27.7243ZM27.5 20L27.9736 20.1604C27.1651 22.5476 26.0444 24.1046 24.4579 25.2362C22.8947 26.3512 20.9129 27.0267 18.4522 27.7243L18.3159 27.2432L18.1795 26.7622C20.6409 26.0644 22.4696 25.4261 23.8772 24.4221C25.2614 23.4348 26.2718 22.0679 27.0264 19.8396L27.5 20Z" fill="#296479"/>
<line x1="24.6311" y1="38.8445" x2="12.0001" y2="38.8445" stroke="#296479" stroke-width="0.5"/>
<path d="M18.316 44.2703L18.4157 44.2703C20.797 44.2703 23.4931 43.5863 24.2543 41.33C24.5142 40.5597 24.6313 39.6769 24.6315 38.5946" stroke="#296479" stroke-width="0.5"/>
<path d="M18.3155 44.27L18.2158 44.27C15.8345 44.27 13.1383 43.5861 12.3771 41.3298C12.1173 40.5595 12.0002 39.6767 12 38.5943" stroke="#296479" stroke-width="0.5"/>
<path fill-rule="evenodd" clip-rule="evenodd" d="M15 39L15.2374 39.0784L15.2375 39.0782L15.2378 39.0772L15.2391 39.0733L15.2444 39.0574L15.2652 38.9952C15.2835 38.9406 15.3105 38.8604 15.3452 38.7583C15.4147 38.554 15.5153 38.2619 15.6391 37.9114C15.8868 37.2101 16.2274 36.2759 16.5995 35.3426C16.9722 34.4075 17.3737 33.4804 17.743 32.7898C17.9283 32.4433 18.1002 32.1663 18.2511 31.9793C18.3268 31.8855 18.3906 31.8227 18.4412 31.7852C18.4735 31.7613 18.4927 31.7534 18.5 31.751C18.5074 31.7534 18.5265 31.7613 18.5588 31.7852C18.6095 31.8227 18.6733 31.8855 18.7489 31.9793C18.8998 32.1663 19.0718 32.4433 19.257 32.7898C19.6263 33.4804 20.0277 34.4075 20.4004 35.3426C20.7725 36.2759 21.113 37.2101 21.3608 37.9114C21.4846 38.2619 21.5851 38.554 21.6546 38.7583C21.6893 38.8604 21.7164 38.9406 21.7346 38.9952L21.7554 39.0574L21.7607 39.0733L21.762 39.0772L21.7623 39.0782L21.7624 39.0784L21.9998 39C22.2371 38.9215 22.2371 38.9215 22.2371 38.9214L22.237 38.9211L22.2367 38.9201L22.2353 38.9159L22.2299 38.8996L22.2087 38.8363C22.1902 38.7811 22.163 38.7001 22.1279 38.5972C22.0579 38.3914 21.9568 38.0975 21.8322 37.7449C21.5832 37.0399 21.2402 36.0991 20.8649 35.1574C20.4903 34.2175 20.0806 33.2696 19.6979 32.554C19.5073 32.1974 19.3181 31.8884 19.138 31.6653C19.0482 31.5539 18.954 31.4556 18.8563 31.3833C18.761 31.3127 18.6394 31.25 18.5 31.25C18.3606 31.25 18.2391 31.3127 18.1438 31.3833C18.046 31.4556 17.9519 31.5539 17.862 31.6653C17.682 31.8884 17.4928 32.1974 17.3021 32.554C16.9194 33.2696 16.5097 34.2175 16.135 35.1574C15.7597 36.0991 15.4167 37.0399 15.1676 37.7449C15.0431 38.0975 14.9419 38.3913 14.8719 38.5972C14.8369 38.7001 14.8096 38.7811 14.7911 38.8363L14.77 38.8995L14.7645 38.9159L14.7631 38.9201L14.7628 38.9211L14.7627 38.9214C14.7627 38.9215 14.7627 38.9215 15 39Z" fill="#296479"/>
<line x1="24.6311" y1="39.0945" x2="12.0001" y2="39.0945" stroke="#296479"/>
<path d="M18.316 44.2703L18.4157 44.2703C20.797 44.2703 23.4931 43.5863 24.2543 41.33C24.5142 40.5597 24.6313 39.6769 24.6315 38.5946" stroke="#296479"/>
<path d="M18.3155 44.27L18.2158 44.27C15.8345 44.27 13.1383 43.5861 12.3771 41.3298C12.1173 40.5595 12.0002 39.6767 12 38.5943" stroke="#296479"/>
<path d="M18.5 31C18.715 31 18.8885 31.0965 19.0049 31.1826C19.1262 31.2724 19.2361 31.3877 19.333 31.5078C19.5276 31.749 19.7246 32.0748 19.918 32.4365C20.3072 33.1645 20.7211 34.1223 21.0967 35.0645C21.4736 36.0101 21.8187 36.9544 22.0684 37.6611C22.1932 38.0147 22.294 38.31 22.3643 38.5166C22.3994 38.6198 22.4267 38.7012 22.4453 38.7568C22.4546 38.7844 22.462 38.8058 22.4668 38.8203C22.4692 38.8274 22.4714 38.8332 22.4727 38.8369C22.4733 38.8388 22.4733 38.8408 22.4736 38.8418L22.4746 38.8428L21.5254 39.1572L21.5244 39.1562C21.5242 39.1555 21.5239 39.1539 21.5234 39.1523C21.5223 39.149 21.5208 39.1434 21.5186 39.1367C21.5139 39.1229 21.5071 39.1013 21.498 39.0742C21.4799 39.02 21.4525 38.9404 21.418 38.8389C21.3487 38.6354 21.2484 38.3444 21.125 37.9951C20.8779 37.2957 20.5383 36.3646 20.168 35.4355C19.7962 34.5029 19.3987 33.5853 19.0361 32.9072C18.8538 32.5663 18.6909 32.3056 18.5547 32.1367C18.5353 32.1127 18.5162 32.0922 18.5 32.0742C18.4838 32.0922 18.4647 32.1127 18.4453 32.1367C18.3091 32.3056 18.1462 32.5663 17.9639 32.9072C17.6013 33.5853 17.2038 34.5029 16.832 35.4355C16.4617 36.3647 16.1221 37.2957 15.875 37.9951C15.7516 38.3444 15.6513 38.6354 15.582 38.8389C15.5475 38.9404 15.5201 39.02 15.502 39.0742C15.4929 39.1013 15.4861 39.1229 15.4814 39.1367C15.4792 39.1435 15.4777 39.149 15.4766 39.1523C15.476 39.1539 15.4758 39.1555 15.4756 39.1562H15.4746V39.1572L14.5254 38.8428V38.8418C14.5257 38.8408 14.5267 38.8388 14.5273 38.8369C14.5286 38.8332 14.5308 38.8274 14.5332 38.8203C14.538 38.8058 14.5445 38.7844 14.5537 38.7568C14.5723 38.7012 14.5996 38.6199 14.6348 38.5166C14.7051 38.31 14.8067 38.0148 14.9316 37.6611C15.1813 36.9544 15.5254 36.0101 15.9023 35.0645C16.2779 34.1222 16.6927 33.1646 17.082 32.4365C17.2754 32.0748 17.4724 31.749 17.667 31.5078C17.7639 31.3877 17.8738 31.2724 17.9951 31.1826C18.1115 31.0965 18.285 31 18.5 31Z" fill="#296479"/>
<line x1="51.6311" y1="39.0945" x2="39.0001" y2="39.0945" stroke="#296479"/>
<path d="M45.316 44.2703L45.4157 44.2703C47.797 44.2703 50.4931 43.5863 51.2543 41.33C51.5142 40.5597 51.6313 39.6769 51.6315 38.5946" stroke="#296479"/>
<path d="M45.3155 44.27L45.2158 44.27C42.8345 44.27 40.1383 43.5861 39.3771 41.3298C39.1173 40.5595 39.0002 39.6767 39 38.5943" stroke="#296479"/>
<path d="M45.5 31C45.715 31 45.8885 31.0965 46.0049 31.1826C46.1262 31.2724 46.2361 31.3877 46.333 31.5078C46.5276 31.749 46.7246 32.0748 46.918 32.4365C47.3072 33.1645 47.7211 34.1223 48.0967 35.0645C48.4736 36.0101 48.8187 36.9544 49.0684 37.6611C49.1932 38.0147 49.294 38.31 49.3643 38.5166C49.3994 38.6198 49.4267 38.7012 49.4453 38.7568C49.4546 38.7844 49.462 38.8058 49.4668 38.8203C49.4692 38.8274 49.4714 38.8332 49.4727 38.8369C49.4733 38.8388 49.4733 38.8408 49.4736 38.8418L49.4746 38.8428L48.5254 39.1572L48.5244 39.1562C48.5242 39.1555 48.5239 39.1539 48.5234 39.1523C48.5223 39.149 48.5208 39.1434 48.5186 39.1367C48.5139 39.1229 48.5071 39.1013 48.498 39.0742C48.4799 39.02 48.4525 38.9404 48.418 38.8389C48.3487 38.6354 48.2484 38.3444 48.125 37.9951C47.8779 37.2957 47.5383 36.3646 47.168 35.4355C46.7962 34.5029 46.3987 33.5853 46.0361 32.9072C45.8538 32.5663 45.6909 32.3056 45.5547 32.1367C45.5353 32.1127 45.5162 32.0922 45.5 32.0742C45.4838 32.0922 45.4647 32.1127 45.4453 32.1367C45.3091 32.3056 45.1462 32.5663 44.9639 32.9072C44.6013 33.5853 44.2038 34.5029 43.832 35.4355C43.4617 36.3647 43.1221 37.2957 42.875 37.9951C42.7516 38.3444 42.6513 38.6354 42.582 38.8389C42.5475 38.9404 42.5201 39.02 42.502 39.0742C42.4929 39.1013 42.4861 39.1229 42.4814 39.1367C42.4792 39.1435 42.4777 39.149 42.4766 39.1523C42.476 39.1539 42.4758 39.1555 42.4756 39.1562H42.4746V39.1572L41.5254 38.8428V38.8418C41.5257 38.8408 41.5267 38.8388 41.5273 38.8369C41.5286 38.8332 41.5308 38.8274 41.5332 38.8203C41.538 38.8058 41.5445 38.7844 41.5537 38.7568C41.5723 38.7012 41.5996 38.6199 41.6348 38.5166C41.7051 38.31 41.8067 38.0148 41.9316 37.6611C42.1813 36.9544 42.5254 36.0101 42.9023 35.0645C43.2779 34.1222 43.6927 33.1646 44.082 32.4365C44.2754 32.0748 44.4724 31.749 44.667 31.5078C44.7639 31.3877 44.8738 31.2724 44.9951 31.1826C45.1115 31.0965 45.285 31 45.5 31Z" fill="#296479"/>
</svg>
