<svg width="64" height="64" viewBox="0 0 64 64" fill="none" xmlns="http://www.w3.org/2000/svg">
<circle cx="32" cy="32" r="32" fill="#DEE7EC"/>
<path d="M26.7178 37.0029C25.8924 36.2807 25.2376 35.4232 24.7909 34.4796C24.3442 33.5359 24.1143 32.5245 24.1143 31.5031C24.1143 30.4817 24.3442 29.4702 24.7909 28.5266C25.2376 27.5829 25.8924 26.7255 26.7178 26.0032C27.5433 25.281 28.5232 24.708 29.6017 24.3172C30.6801 23.9263 31.836 23.7251 33.0034 23.7251C34.1707 23.7251 35.3266 23.9263 36.4051 24.3172C37.4836 24.708 38.4635 25.281 39.2889 26.0032" stroke="#296479" stroke-linecap="round" stroke-linejoin="round"/>
<path d="M31.4311 32.8747L31.8178 33.355C34.016 35.9557 37.1399 37.8431 40.6981 38.7203C44.2563 39.5974 48.0469 39.4146 51.4733 38.2006C50.2123 40.8557 48.223 43.198 45.6814 45.0205C43.1397 46.8429 40.1241 48.0893 36.901 48.6495C33.6779 49.2096 30.3468 49.0663 27.2021 48.2321C24.0574 47.3979 21.1961 45.8986 18.8711 43.8667M13 31.5H15.2222M33 14V15.9444M18.7778 19.0556L20.3333 20.4167M13 49L53 14" stroke="#296479" stroke-linecap="round" stroke-linejoin="round"/>
</svg>
