<svg width="20" height="20" viewBox="0 0 20 20" fill="none" xmlns="http://www.w3.org/2000/svg">
<path d="M4.44434 8.99988H6.66656V10.9999H4.44434V8.99988ZM4.44434 12.9999H6.66656V14.9999H4.44434V12.9999ZM8.88878 8.99988H11.111V10.9999H8.88878V8.99988ZM8.88878 12.9999H11.111V14.9999H8.88878V12.9999ZM13.3332 8.99988H15.5554V10.9999H13.3332V8.99988ZM13.3332 12.9999H15.5554V14.9999H13.3332V12.9999Z" fill="#4B4B4B"/>
<path d="M2.22222 20H17.7778C19.0033 20 20 19.103 20 18V4C20 2.897 19.0033 2 17.7778 2H15.5556V0H13.3333V2H6.66667V0H4.44444V2H2.22222C0.996667 2 0 2.897 0 4V18C0 19.103 0.996667 20 2.22222 20ZM17.7778 6L17.7789 18H2.22222V6H17.7778Z" fill="#4B4B4B"/>
</svg>
