<svg width="12" height="12" viewBox="0 0 12 12" fill="none" xmlns="http://www.w3.org/2000/svg">
<path d="M3.61166 5.39976C3.49317 5.39976 3.37733 5.43495 3.2788 5.50087C3.18028 5.5668 3.10349 5.6605 3.05814 5.77013C3.01279 5.87977 3.00093 6.0004 3.02404 6.11678C3.04716 6.23317 3.10422 6.34007 3.18801 6.42398C3.2718 6.50789 3.37856 6.56503 3.49478 6.58818C3.611 6.61133 3.73146 6.59945 3.84094 6.55404C3.95042 6.50863 4.04399 6.43173 4.10982 6.33306C4.17565 6.2344 4.21079 6.1184 4.21079 5.99973C4.21079 5.84061 4.14767 5.68801 4.03531 5.57549C3.92295 5.46297 3.77056 5.39976 3.61166 5.39976ZM6.00818 5.39976C5.88968 5.39976 5.77385 5.43495 5.67532 5.50087C5.57679 5.5668 5.5 5.6605 5.45466 5.77013C5.40931 5.87977 5.39744 6.0004 5.42056 6.11678C5.44368 6.23317 5.50074 6.34007 5.58453 6.42398C5.66832 6.50789 5.77507 6.56503 5.89129 6.58818C6.00751 6.61133 6.12798 6.59945 6.23746 6.55404C6.34693 6.50863 6.4405 6.43173 6.50634 6.33306C6.57217 6.2344 6.60731 6.1184 6.60731 5.99973C6.60731 5.84061 6.54419 5.68801 6.43183 5.57549C6.31947 5.46297 6.16708 5.39976 6.00818 5.39976ZM8.4047 5.39976C8.2862 5.39976 8.17036 5.43495 8.07184 5.50087C7.97331 5.5668 7.89652 5.6605 7.85117 5.77013C7.80583 5.87977 7.79396 6.0004 7.81708 6.11678C7.8402 6.23317 7.89726 6.34007 7.98105 6.42398C8.06484 6.50789 8.17159 6.56503 8.28781 6.58818C8.40403 6.61133 8.5245 6.59945 8.63397 6.55404C8.74345 6.50863 8.83702 6.43173 8.90285 6.33306C8.96869 6.2344 9.00382 6.1184 9.00382 5.99973C9.00382 5.84061 8.9407 5.68801 8.82834 5.57549C8.71599 5.46297 8.56359 5.39976 8.4047 5.39976ZM6.00818 0C5.22139 0 4.44231 0.155188 3.71541 0.456703C2.98851 0.758217 2.32804 1.20015 1.7717 1.75728C0.648111 2.88245 0.0168873 4.40851 0.0168873 5.99973C0.0121548 7.38507 0.49112 8.72848 1.37092 9.79757L0.172661 10.9975C0.0895271 11.0819 0.0332112 11.189 0.0108193 11.3054C-0.0115726 11.4218 0.000962739 11.5422 0.0468437 11.6515C0.0966061 11.7594 0.177277 11.8501 0.278615 11.9121C0.379953 11.9741 0.497389 12.0045 0.616016 11.9995H6.00818C7.59717 11.9995 9.12108 11.3674 10.2447 10.2422C11.3682 9.11702 11.9995 7.59096 11.9995 5.99973C11.9995 4.40851 11.3682 2.88245 10.2447 1.75728C9.12108 0.632113 7.59717 0 6.00818 0ZM6.00818 10.7995H2.05992L2.61711 10.2415C2.67372 10.186 2.71876 10.1197 2.74961 10.0466C2.78046 9.97347 2.79652 9.89495 2.79685 9.81557C2.7946 9.65731 2.72999 9.50636 2.61711 9.39558C1.8326 8.61084 1.34406 7.57799 1.23473 6.47299C1.1254 5.36799 1.40204 4.25921 2.01752 3.33557C2.63299 2.41192 3.54923 1.73054 4.61012 1.40752C5.67101 1.0845 6.81093 1.13983 7.83565 1.56408C8.86038 1.98833 9.70651 2.75524 10.2299 3.73417C10.7533 4.7131 10.9216 5.84347 10.706 6.9327C10.4905 8.02193 9.9045 9.00263 9.04788 9.70772C8.19127 10.4128 7.11702 10.7986 6.00818 10.7995Z" fill="#296479"/>
</svg>
