<svg width="100" height="100" viewBox="0 0 100 100" fill="none" xmlns="http://www.w3.org/2000/svg">
<circle cx="50" cy="50" r="50" fill="#FFD2D2"/>
<path d="M50 55.1103L32.1141 72.9962C31.4449 73.6654 30.5932 74 29.5589 74C28.5247 74 27.673 73.6654 27.0038 72.9962C26.3346 72.327 26 71.4753 26 70.4411C26 69.4068 26.3346 68.5551 27.0038 67.8859L44.8897 50L27.0038 32.1141C26.3346 31.4449 26 30.5932 26 29.5589C26 28.5247 26.3346 27.673 27.0038 27.0038C27.673 26.3346 28.5247 26 29.5589 26C30.5932 26 31.4449 26.3346 32.1141 27.0038L50 44.8897L67.8859 27.0038C68.5551 26.3346 69.4068 26 70.4411 26C71.4753 26 72.327 26.3346 72.9962 27.0038C73.6654 27.673 74 28.5247 74 29.5589C74 30.5932 73.6654 31.4449 72.9962 32.1141L55.1103 50L72.9962 67.8859C73.6654 68.5551 74 69.4068 74 70.4411C74 71.4753 73.6654 72.327 72.9962 72.9962C72.327 73.6654 71.4753 74 70.4411 74C69.4068 74 68.5551 73.6654 67.8859 72.9962L50 55.1103Z" fill="#CE0A0A"/>
</svg>
