<svg width="22" height="15" viewBox="0 0 22 15" fill="none" xmlns="http://www.w3.org/2000/svg">
<path d="M11 4.50281C10.2044 4.50281 9.44129 4.81907 8.87868 5.38203C8.31607 5.94499 8 6.70853 8 7.50467C8 8.30082 8.31607 9.06436 8.87868 9.62732C9.44129 10.1903 10.2044 10.5065 11 10.5065C11.7956 10.5065 12.5587 10.1903 13.1213 9.62732C13.6839 9.06436 14 8.30082 14 7.50467C14 6.70853 13.6839 5.94499 13.1213 5.38203C12.5587 4.81907 11.7956 4.50281 11 4.50281ZM11 12.5078C9.67392 12.5078 8.40215 11.9807 7.46447 11.0424C6.52678 10.1041 6 8.83158 6 7.50467C6 6.17777 6.52678 4.9052 7.46447 3.96694C8.40215 3.02867 9.67392 2.50156 11 2.50156C12.3261 2.50156 13.5979 3.02867 14.5355 3.96694C15.4732 4.9052 16 6.17777 16 7.50467C16 8.83158 15.4732 10.1041 14.5355 11.0424C13.5979 11.9807 12.3261 12.5078 11 12.5078ZM11 0C6 0 1.73 3.11194 0 7.50467C1.73 11.8974 6 15.0093 11 15.0093C16 15.0093 20.27 11.8927 22 7.5C20.27 3.10726 16 0 11 0Z" fill="#296479"/>
</svg>
