<svg width="32" height="33" viewBox="0 0 32 33" fill="none" xmlns="http://www.w3.org/2000/svg">
<circle cx="16" cy="16.5996" r="16" fill="#3D6952"/>
<path d="M11.8 6.59961H20.2C23.4 6.59961 26 9.20556 26 12.4129V20.8321C26 22.3739 25.3889 23.8525 24.3012 24.9427C23.2135 26.0329 21.7383 26.6454 20.2 26.6454H11.8C8.6 26.6454 6 24.0394 6 20.8321V12.4129C6 10.8711 6.61107 9.39248 7.69878 8.30228C8.78649 7.21208 10.2617 6.59961 11.8 6.59961ZM11.6 8.60419C10.6452 8.60419 9.72955 8.98434 9.05442 9.66101C8.37928 10.3377 8 11.2555 8 12.2124V21.0326C8 23.0271 9.61 24.6408 11.6 24.6408H20.4C21.3548 24.6408 22.2705 24.2606 22.9456 23.584C23.6207 22.9073 24 21.9895 24 21.0326V12.2124C24 10.2179 22.39 8.60419 20.4 8.60419H11.6ZM21.25 10.1076C21.5815 10.1076 21.8995 10.2396 22.1339 10.4746C22.3683 10.7095 22.5 11.0282 22.5 11.3605C22.5 11.6928 22.3683 12.0114 22.1339 12.2464C21.8995 12.4813 21.5815 12.6133 21.25 12.6133C20.9185 12.6133 20.6005 12.4813 20.3661 12.2464C20.1317 12.0114 20 11.6928 20 11.3605C20 11.0282 20.1317 10.7095 20.3661 10.4746C20.6005 10.2396 20.9185 10.1076 21.25 10.1076ZM16 11.6111C17.3261 11.6111 18.5979 12.139 19.5355 13.0789C20.4732 14.0187 21 15.2934 21 16.6225C21 17.9516 20.4732 19.2263 19.5355 20.1661C18.5979 21.1059 17.3261 21.6339 16 21.6339C14.6739 21.6339 13.4021 21.1059 12.4645 20.1661C11.5268 19.2263 11 17.9516 11 16.6225C11 15.2934 11.5268 14.0187 12.4645 13.0789C13.4021 12.139 14.6739 11.6111 16 11.6111ZM16 13.6156C15.2044 13.6156 14.4413 13.9324 13.8787 14.4963C13.3161 15.0602 13 15.825 13 16.6225C13 17.42 13.3161 18.1848 13.8787 18.7487C14.4413 19.3126 15.2044 19.6294 16 19.6294C16.7956 19.6294 17.5587 19.3126 18.1213 18.7487C18.6839 18.1848 19 17.42 19 16.6225C19 15.825 18.6839 15.0602 18.1213 14.4963C17.5587 13.9324 16.7956 13.6156 16 13.6156Z" fill="#F9F8F8"/>
</svg>
