<svg width="12" height="12" viewBox="0 0 12 12" fill="none" xmlns="http://www.w3.org/2000/svg">
<path d="M12 5.4C12 5.08174 11.8851 4.77652 11.6805 4.55147C11.4759 4.32643 11.1984 4.2 10.9091 4.2H7.46182L7.98545 1.458C7.99636 1.398 8.00182 1.332 8.00182 1.266C8.00182 1.02 7.90909 0.792 7.76182 0.63L7.18364 0L3.59455 3.948C3.39273 4.17 3.27273 4.47 3.27273 4.8V10.8C3.27273 11.1183 3.38766 11.4235 3.59225 11.6485C3.79683 11.8736 4.07431 12 4.36364 12H9.27273C9.72546 12 10.1127 11.7 10.2764 11.268L11.9236 7.038C11.9727 6.9 12 6.756 12 6.6V5.4ZM0 12H2.18182V4.8H0V12Z" fill="#296479"/>
</svg>
