<svg width="55" height="40" viewBox="0 0 55 40" fill="none" xmlns="http://www.w3.org/2000/svg">
<circle cx="40" cy="25" r="15" fill="#96CAE1"/>
<path d="M22.8214 0.747081C21.9529 0.256909 20.9681 -0.000735744 19.9659 1.5781e-06C18.9636 0.0007389 17.9792 0.259832 17.1114 0.751282L2.85429 8.82512C1.98637 9.31694 1.26573 10.0239 0.764725 10.875C0.263722 11.7262 -1.34972e-05 12.6915 5.18078e-10 13.6742L5.1808e-10 28.6989C5.18082e-10 30.37 0.677294 31.9728 1.88288 33.1544C3.08848 34.3361 4.72361 35 6.42857 35L33.5714 35C35.2764 35 36.9115 34.3361 38.1171 33.1544C39.3227 31.9728 40 30.37 40 28.6989V13.6798C40.0001 12.6954 39.7356 11.7283 39.233 10.876C38.7304 10.0237 38.0075 9.31635 37.1371 8.82512L22.8214 0.747081ZM17.8257 1.9639C18.4765 1.59509 19.2148 1.40055 19.9666 1.39981C20.7183 1.39907 21.457 1.59216 22.1086 1.9597L36.4229 10.0391C37.1471 10.4466 37.72 11.0445 38.0914 11.7474L20 21.5968L1.90857 11.7432C2.27857 11.0431 2.84857 10.4452 3.57 10.0363L17.8257 1.9639ZM1.46857 13.1057L19.6543 23.0097C19.7603 23.0673 19.8795 23.0975 20.0007 23.0975C20.1219 23.0975 20.2411 23.0673 20.3471 23.0097L38.5329 13.1099C38.5586 13.2966 38.5714 13.4866 38.5714 13.6798V28.6989C38.5714 29.9987 38.0446 31.2452 37.107 32.1643C36.1693 33.0834 34.8975 33.5998 33.5714 33.5998L6.42857 33.5998C5.77196 33.5998 5.12178 33.473 4.51515 33.2267C3.90853 32.9804 3.35733 32.6194 2.89304 32.1643C2.42875 31.7092 2.06045 31.169 1.80917 30.5744C1.5579 29.9798 1.42857 29.3425 1.42857 28.6989L1.42857 13.6742C1.42857 13.4819 1.44191 13.2924 1.46857 13.1057Z" fill="#151515"/>
</svg>
