<svg width="16" height="24" viewBox="0 0 16 24" fill="none" xmlns="http://www.w3.org/2000/svg">
<path d="M0 4.3722C0 2.84193 -7.94729e-08 2.0768 0.290667 1.49201C0.546325 0.97786 0.954257 0.559838 1.456 0.297856C2.02667 -8.14386e-08 2.77333 0 4.26667 0H11.7333C13.2267 0 13.9733 -8.14386e-08 14.544 0.297856C15.0457 0.559838 15.4537 0.97786 15.7093 1.49201C16 2.0768 16 2.84193 16 4.3722V22.551C16 23.215 16 23.547 15.8653 23.7288C15.8071 23.8078 15.7329 23.8729 15.6477 23.9196C15.5625 23.9663 15.4684 23.9935 15.372 23.9993C15.1493 24.013 14.88 23.8285 14.3413 23.461L8 19.1284L1.65867 23.4596C1.12 23.8285 0.850666 24.013 0.626666 23.9993C0.530448 23.9933 0.436636 23.9661 0.351697 23.9194C0.266758 23.8727 0.192713 23.8076 0.134666 23.7288C-2.28484e-07 23.547 0 23.215 0 22.551V4.3722Z" fill="#F9F8F8"/>
</svg>
