<svg width="56" height="40" viewBox="0 0 56 40" fill="none" xmlns="http://www.w3.org/2000/svg">
<circle cx="41" cy="25" r="15" fill="#96CAE1"/>
<path d="M8.71045 35H33.5" stroke="#151515"/>
<path d="M21 34.5V9" stroke="#151515"/>
<path d="M20.9995 0.5C23.6816 0.5 25.763 2.4425 25.7632 4.72949C25.7632 7.01659 23.6817 8.95898 20.9995 8.95898C18.3175 8.95876 16.2368 7.01646 16.2368 4.72949C16.237 2.44263 18.3176 0.500223 20.9995 0.5Z" stroke="#151515"/>
<path d="M34.5478 13.7243C34.8134 13.7996 35.0899 13.6453 35.1652 13.3796C35.2405 13.1139 35.0862 12.8375 34.8205 12.7622L34.6841 13.2432L34.5478 13.7243ZM25.5 6L25.0264 6.16039C25.8349 8.5476 26.9556 10.1046 28.5421 11.2362C30.1053 12.3512 32.0871 13.0267 34.5478 13.7243L34.6841 13.2432L34.8205 12.7622C32.3591 12.0644 30.5304 11.4261 29.1228 10.4221C27.7386 9.43479 26.7282 8.06788 25.9736 5.83961L25.5 6Z" fill="#151515"/>
<path d="M7.45223 13.7243C7.18656 13.7996 6.91014 13.6453 6.83482 13.3796C6.75951 13.1139 6.91383 12.8375 7.1795 12.7622L7.31587 13.2432L7.45223 13.7243ZM16.5 6L16.9736 6.16039C16.1651 8.5476 15.0444 10.1046 13.4579 11.2362C11.8947 12.3512 9.91289 13.0267 7.45223 13.7243L7.31587 13.2432L7.1795 12.7622C9.64093 12.0644 11.4696 11.4261 12.8772 10.4221C14.2614 9.43479 15.2718 8.06788 16.0264 5.83961L16.5 6Z" fill="#151515"/>
<line x1="13.6311" y1="24.8446" x2="1.00014" y2="24.8446" stroke="#151515" stroke-width="0.5"/>
<path d="M7.31598 30.2703L7.41571 30.2703C9.79696 30.2703 12.4931 29.5863 13.2543 27.33C13.5142 26.5597 13.6313 25.6769 13.6315 24.5946" stroke="#151515" stroke-width="0.5"/>
<path d="M7.31548 30.2703L7.21575 30.2703C4.8345 30.2703 2.13832 29.5863 1.37714 27.33C1.11727 26.5597 1.0002 25.6769 1 24.5946" stroke="#151515" stroke-width="0.5"/>
<path d="M7.5 17.25C7.63935 17.25 7.76116 17.3123 7.85645 17.3828C7.95415 17.4551 8.04792 17.5538 8.1377 17.665C8.31771 17.8881 8.50758 18.1971 8.69824 18.5537C9.08088 19.2693 9.49059 20.2173 9.86523 21.1572C10.2406 22.0989 10.583 23.0402 10.832 23.7451C10.9565 24.0976 11.0579 24.3918 11.1279 24.5977C11.1628 24.7002 11.1905 24.7807 11.209 24.8359C11.2182 24.8634 11.2247 24.8851 11.2295 24.8994C11.2319 24.9066 11.2341 24.9123 11.2354 24.916C11.2359 24.9176 11.236 24.919 11.2363 24.9199L11.2373 24.9209V24.9219L10.7627 25.0781L10.7617 25.0771C10.7614 25.0763 10.7613 25.0749 10.7607 25.0732C10.7596 25.0698 10.7581 25.0645 10.7559 25.0576C10.7512 25.0436 10.7435 25.0224 10.7344 24.9951C10.7161 24.9405 10.689 24.8599 10.6543 24.7578C10.5848 24.5535 10.4841 24.2614 10.3604 23.9111C10.1127 23.2099 9.77232 22.2759 9.40039 21.3428C9.02772 20.4078 8.62606 19.4806 8.25684 18.79C8.07164 18.4437 7.89989 18.1665 7.74902 17.9795C7.6734 17.8858 7.60925 17.8226 7.55859 17.7852C7.50561 17.746 7.48826 17.75 7.5 17.75C7.51179 17.75 7.49444 17.7459 7.44141 17.7852C7.39074 17.8227 7.3266 17.8858 7.25098 17.9795C7.1001 18.1665 6.92837 18.4437 6.74316 18.79C6.37391 19.4806 5.97231 20.4078 5.59961 21.3428C5.2276 22.276 4.8864 23.2099 4.63867 23.9111C4.5149 24.2615 4.41425 24.5535 4.34473 24.7578C4.31002 24.8598 4.28392 24.9405 4.26562 24.9951C4.25648 25.0224 4.24881 25.0436 4.24414 25.0576C4.24186 25.0645 4.24041 25.0698 4.23926 25.0732C4.23867 25.075 4.23759 25.0763 4.2373 25.0771V25.0781L3.7627 24.9219V24.9199C3.763 24.919 3.76405 24.9178 3.76465 24.916C3.76587 24.9123 3.76714 24.9066 3.76953 24.8994C3.77431 24.8851 3.78176 24.8636 3.79102 24.8359C3.80951 24.7807 3.83718 24.7002 3.87207 24.5977C3.94211 24.3918 4.04343 24.0977 4.16797 23.7451C4.41698 23.0402 4.75941 22.0989 5.13477 21.1572C5.50943 20.2173 5.9191 19.2693 6.30176 18.5537C6.49243 18.1971 6.68228 17.8881 6.8623 17.665C6.95208 17.5538 7.04585 17.4551 7.14355 17.3828C7.23884 17.3123 7.36066 17.25 7.5 17.25Z" fill="#151515"/>
<line x1="13.6311" y1="25.0946" x2="1.00014" y2="25.0946" stroke="#151515"/>
<path d="M7.31598 30.2703L7.41571 30.2703C9.79696 30.2703 12.4931 29.5863 13.2543 27.33C13.5142 26.5597 13.6313 25.6769 13.6315 24.5946" stroke="#151515"/>
<path d="M7.31548 30.2703L7.21575 30.2703C4.8345 30.2703 2.13832 29.5863 1.37714 27.33C1.11727 26.5597 1.0002 25.6769 1 24.5946" stroke="#151515"/>
<path d="M7.5 17C7.71498 17 7.8885 17.0965 8.00488 17.1826C8.12617 17.2724 8.23609 17.3877 8.33301 17.5078C8.5276 17.749 8.72459 18.0748 8.91797 18.4365C9.30722 19.1645 9.72114 20.1223 10.0967 21.0645C10.4736 22.0101 10.8187 22.9544 11.0684 23.6611C11.1932 24.0147 11.294 24.31 11.3643 24.5166C11.3994 24.6198 11.4267 24.7012 11.4453 24.7568C11.4546 24.7844 11.462 24.8058 11.4668 24.8203C11.4692 24.8274 11.4714 24.8332 11.4727 24.8369C11.4733 24.8388 11.4733 24.8408 11.4736 24.8418L11.4746 24.8428L10.5254 25.1572L10.5244 25.1562C10.5242 25.1555 10.5239 25.1539 10.5234 25.1523C10.5223 25.149 10.5208 25.1434 10.5186 25.1367C10.5139 25.1229 10.5071 25.1013 10.498 25.0742C10.4799 25.02 10.4525 24.9404 10.418 24.8389C10.3487 24.6354 10.2484 24.3444 10.125 23.9951C9.87794 23.2957 9.53829 22.3646 9.16797 21.4355C8.79624 20.5029 8.39869 19.5853 8.03613 18.9072C7.85384 18.5663 7.69089 18.3056 7.55469 18.1367C7.5353 18.1127 7.51617 18.0922 7.5 18.0742C7.48383 18.0922 7.46471 18.1127 7.44531 18.1367C7.3091 18.3056 7.14616 18.5663 6.96387 18.9072C6.60129 19.5853 6.20379 20.5029 5.83203 21.4355C5.46167 22.3647 5.12209 23.2957 4.875 23.9951C4.7516 24.3444 4.65127 24.6354 4.58203 24.8389C4.54747 24.9404 4.52013 25.02 4.50195 25.0742C4.49287 25.1013 4.48606 25.1229 4.48145 25.1367C4.4792 25.1435 4.47769 25.149 4.47656 25.1523C4.47604 25.1539 4.47584 25.1555 4.47559 25.1562H4.47461V25.1572L3.52539 24.8428V24.8418C3.52572 24.8408 3.52672 24.8388 3.52734 24.8369C3.52859 24.8332 3.53085 24.8274 3.5332 24.8203C3.53803 24.8058 3.54449 24.7844 3.55371 24.7568C3.57234 24.7012 3.59962 24.6199 3.63477 24.5166C3.70508 24.31 3.80672 24.0148 3.93164 23.6611C4.18128 22.9544 4.52539 22.0101 4.90234 21.0645C5.27795 20.1222 5.69272 19.1646 6.08203 18.4365C6.27542 18.0748 6.47239 17.749 6.66699 17.5078C6.76391 17.3877 6.87383 17.2724 6.99512 17.1826C7.11149 17.0965 7.28502 17 7.5 17Z" fill="#151515"/>
<line x1="40.6311" y1="25.0946" x2="28.0001" y2="25.0946" stroke="#151515"/>
<path d="M34.316 30.2703L34.4157 30.2703C36.797 30.2703 39.4931 29.5863 40.2543 27.33C40.5142 26.5597 40.6313 25.6769 40.6315 24.5946" stroke="#151515"/>
<path d="M34.3155 30.2703L34.2158 30.2703C31.8345 30.2703 29.1383 29.5863 28.3771 27.33C28.1173 26.5597 28.0002 25.6769 28 24.5946" stroke="#151515"/>
<path d="M34.5 17C34.715 17 34.8885 17.0965 35.0049 17.1826C35.1262 17.2724 35.2361 17.3877 35.333 17.5078C35.5276 17.749 35.7246 18.0748 35.918 18.4365C36.3072 19.1645 36.7211 20.1223 37.0967 21.0645C37.4736 22.0101 37.8187 22.9544 38.0684 23.6611C38.1932 24.0147 38.294 24.31 38.3643 24.5166C38.3994 24.6198 38.4267 24.7012 38.4453 24.7568C38.4546 24.7844 38.462 24.8058 38.4668 24.8203C38.4692 24.8274 38.4714 24.8332 38.4727 24.8369C38.4733 24.8388 38.4733 24.8408 38.4736 24.8418L38.4746 24.8428L37.5254 25.1572L37.5244 25.1562C37.5242 25.1555 37.5239 25.1539 37.5234 25.1523C37.5223 25.149 37.5208 25.1434 37.5186 25.1367C37.5139 25.1229 37.5071 25.1013 37.498 25.0742C37.4799 25.02 37.4525 24.9404 37.418 24.8389C37.3487 24.6354 37.2484 24.3444 37.125 23.9951C36.8779 23.2957 36.5383 22.3646 36.168 21.4355C35.7962 20.5029 35.3987 19.5853 35.0361 18.9072C34.8538 18.5663 34.6909 18.3056 34.5547 18.1367C34.5353 18.1127 34.5162 18.0922 34.5 18.0742C34.4838 18.0922 34.4647 18.1127 34.4453 18.1367C34.3091 18.3056 34.1462 18.5663 33.9639 18.9072C33.6013 19.5853 33.2038 20.5029 32.832 21.4355C32.4617 22.3647 32.1221 23.2957 31.875 23.9951C31.7516 24.3444 31.6513 24.6354 31.582 24.8389C31.5475 24.9404 31.5201 25.02 31.502 25.0742C31.4929 25.1013 31.4861 25.1229 31.4814 25.1367C31.4792 25.1435 31.4777 25.149 31.4766 25.1523C31.476 25.1539 31.4758 25.1555 31.4756 25.1562H31.4746V25.1572L30.5254 24.8428V24.8418C30.5257 24.8408 30.5267 24.8388 30.5273 24.8369C30.5286 24.8332 30.5308 24.8274 30.5332 24.8203C30.538 24.8058 30.5445 24.7844 30.5537 24.7568C30.5723 24.7012 30.5996 24.6199 30.6348 24.5166C30.7051 24.31 30.8067 24.0148 30.9316 23.6611C31.1813 22.9544 31.5254 22.0101 31.9023 21.0645C32.2779 20.1222 32.6927 19.1646 33.082 18.4365C33.2754 18.0748 33.4724 17.749 33.667 17.5078C33.7639 17.3877 33.8738 17.2724 33.9951 17.1826C34.1115 17.0965 34.285 17 34.5 17Z" fill="#151515"/>
</svg>
