<svg width="54" height="40" viewBox="0 0 54 40" fill="none" xmlns="http://www.w3.org/2000/svg">
<circle cx="39" cy="25" r="15" fill="#96CAE1"/>
<g clip-path="url(#clip0_154_776)">
<path d="M18.3784 6.77417L22.7028 13.5484L18.3784 20.3226H11.892L7.56763 13.5484L11.892 6.77417H18.3784Z" stroke="#151515" stroke-linecap="round" stroke-linejoin="round"/>
<path d="M29.1893 13.5484L33.5136 6.77419L29.1893 0H22.7028L18.3785 6.77419L22.7028 13.5484M29.1893 13.5484H22.7028M29.1893 13.5484L33.5136 20.3226M22.7028 13.5484L18.3785 20.3226L22.7028 27.0968M29.1893 27.0968L33.5136 33.871M29.1893 27.0968L33.5136 20.3226M29.1893 27.0968H22.7028M7.56768 0L11.892 6.77419M22.7028 27.0968L20.5407 30.4839M11.892 20.3226L9.72984 23.7097M7.56768 13.5484H5.40552M33.5136 20.3226H40.0001" stroke="#151515" stroke-linecap="round" stroke-linejoin="round"/>
<path d="M18.3784 35C18.9755 35 19.4595 34.4945 19.4595 33.871C19.4595 33.2474 18.9755 32.7419 18.3784 32.7419C17.7814 32.7419 17.2974 33.2474 17.2974 33.871C17.2974 34.4945 17.7814 35 18.3784 35Z" fill="#151515"/>
<path d="M7.56765 28.2258C8.16472 28.2258 8.64873 27.7204 8.64873 27.0968C8.64873 26.4733 8.16472 25.9678 7.56765 25.9678C6.97059 25.9678 6.48657 26.4733 6.48657 27.0968C6.48657 27.7204 6.97059 28.2258 7.56765 28.2258Z" fill="#151515"/>
<path d="M1.08108 14.6774C1.67815 14.6774 2.16216 14.1719 2.16216 13.5483C2.16216 12.9248 1.67815 12.4193 1.08108 12.4193C0.484016 12.4193 0 12.9248 0 13.5483C0 14.1719 0.484016 14.6774 1.08108 14.6774Z" fill="#151515"/>
</g>
<defs>
<clipPath id="clip0_154_776">
<rect width="40" height="35" fill="white"/>
</clipPath>
</defs>
</svg>
