<svg width="24" height="24" viewBox="0 0 24 24" fill="none" xmlns="http://www.w3.org/2000/svg">
<path d="M22.9658 24.0029L13.7923 14.8295C13.0599 15.4536 12.2175 15.9365 11.2653 16.2783C10.3131 16.6202 9.35604 16.7911 8.39407 16.7911C6.04822 16.7911 4.06275 15.979 2.43765 14.3549C0.81255 12.7308 0 10.7458 0 8.39993C0 6.05408 0.811572 4.06812 2.43472 2.44205C4.05786 0.815971 6.04236 0.00195676 8.38821 3.51303e-06C10.7341 -0.00194973 12.7205 0.8106 14.3476 2.43765C15.9746 4.0647 16.7881 6.05067 16.7881 8.39554C16.7881 9.41318 16.6079 10.3981 16.2476 11.3503C15.8872 12.3025 15.4135 13.117 14.8266 13.7938L24 22.9658L22.9658 24.0029ZM8.39553 15.3247C10.339 15.3247 11.9797 14.6557 13.3177 13.3177C14.6557 11.9797 15.3247 10.3385 15.3247 8.39407C15.3247 6.44962 14.6557 4.80889 13.3177 3.47189C11.9797 2.1349 10.339 1.46591 8.39553 1.46494C6.45205 1.46396 4.81084 2.13295 3.47189 3.47189C2.13294 4.81084 1.46396 6.45157 1.46493 8.39407C1.46591 10.3366 2.1349 11.9773 3.47189 13.3162C4.80889 14.6552 6.44961 15.3242 8.39407 15.3232" fill="#296479"/>
</svg>
