<svg width="33" height="24" viewBox="0 0 33 24" fill="none" xmlns="http://www.w3.org/2000/svg">
<path d="M16.2 16.3635C18.5859 16.3635 20.5201 14.4098 20.5201 11.9999C20.5201 9.5899 18.5859 7.63623 16.2 7.63623C13.8141 7.63623 11.8799 9.5899 11.8799 11.9999C11.8799 14.4098 13.8141 16.3635 16.2 16.3635Z" fill="#296479"/>
<path d="M32.3357 11.6291C31.0654 8.31016 28.8601 5.43995 25.9924 3.37318C23.1247 1.30642 19.7203 0.133716 16.2 0C12.6797 0.133716 9.27526 1.30642 6.40758 3.37318C3.5399 5.43995 1.33463 8.31016 0.0643424 11.6291C-0.0214475 11.8688 -0.0214475 12.1312 0.0643424 12.3709C1.33463 15.6898 3.5399 18.5601 6.40758 20.6268C9.27526 22.6936 12.6797 23.8663 16.2 24C19.7203 23.8663 23.1247 22.6936 25.9924 20.6268C28.8601 18.5601 31.0654 15.6898 32.3357 12.3709C32.4214 12.1312 32.4214 11.8688 32.3357 11.6291ZM16.2 19.0909C14.8115 19.0909 13.4543 18.675 12.2998 17.8959C11.1453 17.1167 10.2455 16.0093 9.71418 14.7136C9.18284 13.4179 9.04382 11.9921 9.31469 10.6166C9.58557 9.24113 10.2542 7.97765 11.236 6.98597C12.2178 5.99429 13.4686 5.31895 14.8304 5.04534C16.1922 4.77174 17.6037 4.91216 18.8865 5.44885C20.1693 5.98555 21.2657 6.89441 22.0371 8.0605C22.8085 9.2266 23.2202 10.5976 23.2202 12C23.2173 13.8797 22.4768 15.6817 21.1609 17.0108C19.845 18.34 18.061 19.088 16.2 19.0909Z" fill="#296479"/>
</svg>
