<svg width="100" height="100" viewBox="0 0 100 100" fill="none" xmlns="http://www.w3.org/2000/svg">
<circle cx="50" cy="50" r="50" fill="#EFFFF7"/>
<path d="M42.4159 59.3608L68.723 32.9354C69.3439 32.3118 70.0681 32 70.8959 32C71.7237 32 72.4479 32.3118 73.0688 32.9354C73.6896 33.559 74 34.3001 74 35.1586C74 36.0171 73.6896 36.7571 73.0688 37.3786L44.5887 66.0646C43.9679 66.6882 43.2436 67 42.4159 67C41.5881 67 40.8638 66.6882 40.243 66.0646L26.8954 52.657C26.2746 52.0334 25.9766 51.2934 26.0014 50.437C26.0263 49.5805 26.3501 48.8395 26.973 48.2138C27.5959 47.5881 28.3336 47.2763 29.1862 47.2784C30.0388 47.2805 30.7755 47.5923 31.3963 48.2138L42.4159 59.3608Z" fill="#3D6952"/>
</svg>
